<svg width="52" height="52" viewBox="0 0 52 52" fill="none" xmlns="http://www.w3.org/2000/svg">
    <path d="M4.896 6.934h34.246l3.922 38.69H4.187l.709-38.69z" fill="#FFAF4E"/>
    <path d="m42.143 17.911.523 5.229M2.255 17.911l.2 5.229" stroke="#242424" stroke-width="1.444" stroke-linecap="square"/>
    <path d="M17.842 30.19s4.794 2.68 10.722 0" stroke="#242424" stroke-width="1.444" stroke-miterlimit="10"/>
    <path d="M24.801 23.834a3.85 3.85 0 0 1 7.699 0" stroke="#242424" stroke-width="1.444" stroke-miterlimit="10" stroke-linejoin="bevel"/>
    <path d="M19.5 22.39H13" stroke="#242424" stroke-width="1.444" stroke-linecap="square"/>
    <g clip-path="url(#d28gg0zyva)" stroke="#242424" stroke-width="1.444" stroke-linejoin="round">
        <path d="M46.127 42.295a5.482 5.482 0 0 0-.73-2.757 5.399 5.399 0 0 0-2.011-2.001 5.317 5.317 0 0 0-5.442.114 5.406 5.406 0 0 0-1.927 2.084 5.486 5.486 0 0 0 .246 5.503 5.389 5.389 0 0 0 2.106 1.899v2.67a.608.608 0 0 0 .18.417c.112.11.262.172.418.172h3.588a.594.594 0 0 0 .417-.172.608.608 0 0 0 .18-.418V47.09a5.389 5.389 0 0 0 2.154-1.974 5.48 5.48 0 0 0 .822-2.821z" stroke-linecap="round"/>
        <path d="M40.76 31.136v2.328M46.9 33.355l-1.626 1.66M50.395 38.165h-2.3M34.627 33.355l1.625 1.66M31.134 38.165h2.3" stroke-linecap="square"/>
    </g>
    <defs>
        <clipPath id="d28gg0zyva">
            <path fill="#fff" transform="translate(28.889 28.889)" d="M0 0h23.111v23.111H0z"/>
        </clipPath>
    </defs>
</svg>
